<?xml version="1.0" encoding="utf-8"?>
<!-- Generator: Adobe Illustrator 22.1.0, SVG Export Plug-In . SVG Version: 6.00 Build 0)  -->
<svg version="1.1" id="Layer_1" xmlns="http://www.w3.org/2000/svg" xmlns:xlink="http://www.w3.org/1999/xlink" x="0px" y="0px"
	 viewBox="0 0 64 64" style="enable-background:new 0 0 64 64;" xml:space="preserve">
<style type="text/css">
	.st0{display:none;fill:#212121;}
	.st1{opacity:0.5;}
	.st2{fill:#FAA31A;}
	.st3{fill:#5A00FF;}
	.st4{opacity:0.3;}
	.st5{fill:#EAE6DD;}
</style>
<rect class="st0" width="64" height="64"/>
<g class="st1">
	<path class="st2" d="M32,0C14.3,0,0,14.3,0,32s14.3,32,32,32s32-14.3,32-32S49.6,0,32,0z M41.5,33.5h-8v8c0,0.8-0.7,1.5-1.5,1.5
		c-0.8,0-1.5-0.7-1.5-1.5v-8h-8c-0.8,0-1.5-0.7-1.5-1.5s0.7-1.5,1.5-1.5h8v-8c0-0.8,0.7-1.5,1.5-1.5c0.8,0,1.5,0.7,1.5,1.5v8h8
		c0.8,0,1.5,0.7,1.5,1.5S42.3,33.5,41.5,33.5z"/>
</g>
<g>
	<g class="st1">
		<path d="M32.5,11c-12.2,0-22,9.8-22,22s9.8,22,22,22s22-9.8,22-22S44.6,11,32.5,11z M42,34.5h-8v8c0,0.8-0.7,1.5-1.5,1.5
			c-0.8,0-1.5-0.7-1.5-1.5v-8h-8c-0.8,0-1.5-0.7-1.5-1.5s0.7-1.5,1.5-1.5h8v-8c0-0.8,0.7-1.5,1.5-1.5c0.8,0,1.5,0.7,1.5,1.5v8h8
			c0.8,0,1.5,0.7,1.5,1.5S42.8,34.5,42,34.5z"/>
	</g>
	<g>
		<path class="st3" d="M31.5,9c-12.2,0-22,9.8-22,22s9.8,22,22,22s22-9.8,22-22S43.6,9,31.5,9z M41,32.5h-8v8c0,0.8-0.7,1.5-1.5,1.5
			c-0.8,0-1.5-0.7-1.5-1.5v-8h-8c-0.8,0-1.5-0.7-1.5-1.5s0.7-1.5,1.5-1.5h8v-8c0-0.8,0.7-1.5,1.5-1.5c0.8,0,1.5,0.7,1.5,1.5v8h8
			c0.8,0,1.5,0.7,1.5,1.5S41.8,32.5,41,32.5z"/>
	</g>
</g>
<g>
	<g class="st4">
		<path d="M42,34.5h-8v8c0,0.8-0.7,1.5-1.5,1.5S31,43.3,31,42.5v-8h-8c-0.8,0-1.5-0.7-1.5-1.5s0.7-1.5,1.5-1.5h8v-8
			c0-0.8,0.7-1.5,1.5-1.5s1.5,0.7,1.5,1.5v8h8c0.8,0,1.5,0.7,1.5,1.5S42.8,34.5,42,34.5z"/>
	</g>
	<g>
		<path class="st5" d="M41,32.5h-8v8c0,0.8-0.7,1.5-1.5,1.5S30,41.3,30,40.5v-8h-8c-0.8,0-1.5-0.7-1.5-1.5s0.7-1.5,1.5-1.5h8v-8
			c0-0.8,0.7-1.5,1.5-1.5s1.5,0.7,1.5,1.5v8h8c0.8,0,1.5,0.7,1.5,1.5S41.8,32.5,41,32.5z"/>
	</g>
</g>
</svg>
