<?xml version="1.0" encoding="utf-8"?>
<!-- Generator: Adobe Illustrator 22.1.0, SVG Export Plug-In . SVG Version: 6.00 Build 0)  -->
<svg version="1.1" id="Layer_1" xmlns="http://www.w3.org/2000/svg" xmlns:xlink="http://www.w3.org/1999/xlink" x="0px" y="0px"
	 viewBox="0 0 64 64" style="enable-background:new 0 0 64 64;" xml:space="preserve">
<style type="text/css">
	.st0{fill:#121212;}
	.st1{fill:none;}
</style>
<title>Asset 3_1</title>
<path class="st0" d="M46.4,44.5c-1.1,5.3-6,8.6-10.9,7.5c-1.3-0.3-2.4-0.9-3.5-1.7c-4.1,3.2-9.8,2.3-12.8-2
	c-0.8-1.1-1.3-2.4-1.6-3.7c-0.2-1.1,0.5-2.2,1.6-2.4c1-0.2,2,0.5,2.3,1.6c0.6,3,3.4,4.9,6.2,4.3c1.1-0.3,2.1-0.9,2.8-1.8
	c0.1-0.1,0.1-0.1,0.2-0.2c-0.1-0.1-0.2-0.2-0.3-0.2L26,41c-1.4-1.5-0.4-4.1,1.6-4.1h8.7c2,0,3,2.5,1.6,4.1l-4.4,4.6
	c-0.1,0.1-0.2,0.2-0.3,0.3c0.1,0.1,0.1,0.1,0.2,0.2c1.9,2.3,5.2,2.6,7.4,0.6c0.8-0.8,1.4-1.8,1.7-3c0.3-1.1,1.3-1.8,2.4-1.5
	C45.9,42.4,46.6,43.4,46.4,44.5L46.4,44.5z"/>
<rect class="st1" width="6.4" height="6.4"/>
<path class="st0" d="M64,2.1c0-1.9-2.2-2.8-3.5-1.5L53.1,8c-5.6-5-13-8-21.1-8S16.5,3,10.9,8L3.5,0.7C2.2-0.6,0,0.3,0,2.1V32
	c0,0,0,0,0,0c0,17.7,14.3,32,32,32s32-14.3,32-32c0,0,0,0,0,0V2.1z M32,57.6C17.9,57.6,6.4,46.2,6.4,32c0,0,0,0,0,0c0-3.5,0-19,0-19
	l4.5,4.6c1.3-1.9,2.8-3.6,4.5-5c2.2-1.9,4.8-3.4,7.6-4.5v7.4c0,1.1,0.9,2.1,2.1,2.1h0.5c1.1,0,2.1-0.9,2.1-2.1V6.8
	c0.7-0.1,1.3-0.2,2-0.3v9c0,1.1,0.9,2.1,2.1,2.1h0.5c1.1,0,2.1-0.9,2.1-2.1v-9c0.7,0.1,1.4,0.2,2,0.3v8.7c0,1.1,0.9,2.1,2.1,2.1h0.5
	c1.1,0,2.1-0.9,2.1-2.1V8.1c2.8,1.1,5.3,2.6,7.6,4.5c1.7,1.5,3.2,3.2,4.5,5l4.5-4.6c0,0,0,15.6,0,19c0,0,0,0,0,0
	C57.6,46.2,46.1,57.6,32,57.6z"/>
<circle class="st0" cx="22.4" cy="35.2" r="4"/>
<circle class="st0" cx="41.6" cy="35.2" r="4"/>
</svg>
