<?xml version="1.0" encoding="utf-8"?>
<!-- Generator: Adobe Illustrator 22.1.0, SVG Export Plug-In . SVG Version: 6.00 Build 0)  -->
<svg version="1.1" id="Layer_1" xmlns="http://www.w3.org/2000/svg" xmlns:xlink="http://www.w3.org/1999/xlink" x="0px" y="0px"
	 viewBox="0 0 64 64" style="enable-background:new 0 0 64 64;" xml:space="preserve">
<style type="text/css">
	.st0{fill:#121212;}
</style>
<path class="st0" d="M22.4,31.2c-2.2,0-4,1.8-4,4s1.8,4,4,4s4-1.8,4-4S24.6,31.2,22.4,31.2z M41.6,31.2c-2.2,0-4,1.8-4,4s1.8,4,4,4
	s4-1.8,4-4S43.8,31.2,41.6,31.2z M32,0C14.3,0,0,14.3,0,32s14.3,32,32,32s32-14.3,32-32S49.7,0,32,0z M32,57.6
	C17.9,57.6,6.4,46.1,6.4,32c0-0.9,0.1-1.9,0.2-2.8c7.5-3.4,13.5-9.5,16.7-17.2c5.8,8.2,15.3,13.5,26.1,13.5c2.5,0,4.9-0.3,7.2-0.8
	c0.7,2.3,1,4.7,1,7.2C57.6,46.1,46.1,57.6,32,57.6z"/>
</svg>
