<?xml version="1.0" encoding="utf-8"?>
<!-- Generator: Adobe Illustrator 22.1.0, SVG Export Plug-In . SVG Version: 6.00 Build 0)  -->
<svg version="1.1" id="Layer_1" xmlns="http://www.w3.org/2000/svg" xmlns:xlink="http://www.w3.org/1999/xlink" x="0px" y="0px"
	 viewBox="0 0 64 64" style="enable-background:new 0 0 64 64;" xml:space="preserve">
<path d="M32,0C14.3,0,0,14.3,0,32s14.3,32,32,32c17.7,0,32-14.3,32-32S49.7,0,32,0z M54.1,19.2h-9.4c-1-4-2.5-7.8-4.4-11.4
	C46.2,9.8,51.1,13.9,54.1,19.2z M32,6.5c2.7,3.8,4.7,8.1,6.1,12.7H25.9C27.3,14.6,29.3,10.4,32,6.5z M7.2,38.4
	c-0.5-2-0.8-4.2-0.8-6.4s0.3-4.4,0.8-6.4H18c-0.3,2.1-0.4,4.2-0.4,6.4s0.2,4.3,0.4,6.4H7.2z M9.9,44.8h9.4c1,4,2.5,7.8,4.4,11.4
	C17.8,54.2,12.9,50.1,9.9,44.8z M19.3,19.2H9.9c3.1-5.3,8-9.4,13.9-11.4C21.8,11.4,20.3,15.2,19.3,19.2z M32,57.5
	c-2.7-3.8-4.7-8.1-6.1-12.7h12.2C36.7,49.4,34.7,53.6,32,57.5z M39.5,38.4h-15C24.2,36.3,24,34.2,24,32s0.2-4.3,0.5-6.4h15
	c0.3,2.1,0.5,4.2,0.5,6.4S39.8,36.3,39.5,38.4z M40.3,56.2c1.9-3.6,3.4-7.4,4.4-11.4h9.4C51.1,50.1,46.2,54.2,40.3,56.2z M46,38.4
	c0.3-2.1,0.4-4.2,0.4-6.4s-0.2-4.3-0.4-6.4h10.8c0.5,2,0.8,4.2,0.8,6.4s-0.3,4.4-0.8,6.4H46z"/>
</svg>
